<svg xmlns="http://www.w3.org/2000/svg" width="16" height="16" viewBox="0 0 16 16">
    <g fill="none" fill-rule="evenodd">
        <circle cx="8" cy="8" r="8" fill="#9B9B9B"/>
        <path fill="#FFF" d="M11.947 9.573c-.165-.128-2.77-1.328-2.779-1.559 0 0-.01-.087.038-.25.038-.106.095-.24.19-.404 0 0 .153-.202.324-.568.238-.51.495-1.338.39-2.358 0 0 .029-1.828-2.055-1.934h-.01C5.961 2.606 5.99 4.434 5.99 4.434c-.105 1.02.152 1.848.39 2.358.171.366.323.568.323.568.095.163.153.298.19.404.048.163.039.25.039.25-.01.231-2.614 1.431-2.78 1.559-.313.25-.342.596-.342.596s-.082.34.219.744c.116.155.25.298.387.438.472.477 1.022.852 1.634 1.114.634.271 1.308.409 2.001.409.694 0 1.367-.138 2.002-.41.612-.26 1.162-.636 1.634-1.113.12-.122.228-.255.342-.382.351-.39.26-.8.26-.8s-.028-.346-.342-.596"/>
        <path stroke="#FFF" stroke-width=".1" d="M0 0H16V16H0z" opacity=".01"/>
    </g>
</svg>
